<svg class="svg-icon" style="width: 1.17578125em; height: 1em;vertical-align: middle;fill: currentColor;overflow: hidden;" viewBox="0 0 1204 1024" version="1.1" xmlns="http://www.w3.org/2000/svg"><path d="M759.708605 208.343566a20.369652 20.369652 0 0 0-15.692063-24.146334L365.661206 103.782408l-42.332432 199.141085 378.360426 80.425004a20.446 20.446 0 0 0 15.330682-2.835057 20.476539 20.476539 0 0 0 8.825831-12.841736l4.234771-19.931924 25.388261-119.48465 4.23986-19.911564z" fill="#746DE0" /><path d="M1164.35311 263.130905l-10.581836 49.783999-398.302529-84.659774-25.388261 119.48465 398.282169 84.659775-10.576746 49.804358 39.843487 8.45936 46.567202-219.073007zM369.895976 83.860665a20.379831 20.379831 0 0 0-15.686973-24.146334L75.396214 0.458088a20.359472 20.359472 0 0 0-24.156513 15.676794L0.442819 255.109273a20.349292 20.349292 0 0 0 15.686973 24.146334l278.807698 59.256243a20.384921 20.384921 0 0 0 24.156513-15.676794l4.234771-19.911563 42.332432-199.141085 4.23477-19.921743z" fill="#8F89F5" /><path d="M676.494353 575.043105c17.539685-18.287896 28.452362-42.963576 28.452362-70.240178 0-56.131064-45.666296-101.79736-101.797359-101.79736-56.125974 0-101.79736 45.666296-101.79736 101.79736 0 27.276603 10.917767 51.952282 28.452362 70.240178l-213.830444 408.207412h-85.102592v40.718944h109.757913l222.83442-425.446795c6.16892 2.626372 12.627962 4.652139 19.331319 6.016224v409.245745h40.718944v-409.245745a100.295849 100.295849 0 0 0 19.321138-6.016224l222.8446 425.441705h109.747734v-40.718944h-85.092413l-213.835534-408.202322z" fill="#4F676D" /></svg>